<svg xmlns="http://www.w3.org/2000/svg" width="1200" height="630" viewBox="0 0 1200 630">
  <rect width="1200" height="630" fill="#050505"/>
  <path d="M0 0h1200v630H0z" fill="#050505"/>
  <g opacity=".25">
    <path d="M0 70h1200M0 140h1200M0 210h1200M0 280h1200M0 350h1200M0 420h1200M0 490h1200M0 560h1200" stroke="#00E5FF"/>
    <path d="M100 0v630M200 0v630M300 0v630M400 0v630M500 0v630M600 0v630M700 0v630M800 0v630M900 0v630M1000 0v630M1100 0v630" stroke="#B6FF00"/>
  </g>
  <rect x="70" y="70" width="1060" height="490" fill="#111318" stroke="#00E5FF" stroke-width="6"/>
  <rect x="95" y="95" width="190" height="44" fill="#B6FF00"/>
  <text x="115" y="126" font-family="Arial Black, Arial" font-size="24" fill="#050505">SYSTEM ONLINE</text>
  <text x="95" y="250" font-family="Arial Black, Arial" font-size="86" fill="#FAF7ED">YOUR PIPELINE IS NOT</text>
  <text x="95" y="345" font-family="Arial Black, Arial" font-size="86" fill="#FAF7ED">BROKEN. YOUR FOLLOW-UP</text>
  <text x="95" y="440" font-family="Arial Black, Arial" font-size="86" fill="#B6FF00">SYSTEM IS.</text>
  <rect x="95" y="480" width="350" height="58" fill="#00E5FF"/>
  <text x="118" y="518" font-family="Arial Black, Arial" font-size="24" fill="#050505">EVERY DEAL GETS A NEXT ACTION</text>
</svg>
